<svg width="19" height="19" viewBox="0 0 19 19" fill="none" xmlns="http://www.w3.org/2000/svg">
<path d="M12.0709 12.7538L13.4009 11.4238C13.58 11.2469 13.8067 11.1258 14.0533 11.0752C14.3 11.0246 14.556 11.0467 14.7903 11.1388L16.4112 11.786C16.648 11.8821 16.8511 12.0461 16.9948 12.2575C17.1385 12.4688 17.2164 12.7179 17.2187 12.9735V15.9422C17.2173 16.116 17.1808 16.2878 17.1113 16.4472C17.0418 16.6065 16.9408 16.7501 16.8143 16.8694C16.6878 16.9887 16.5385 17.0811 16.3753 17.1411C16.2122 17.2012 16.0386 17.2276 15.865 17.2188C4.50654 16.5122 2.21466 6.89346 1.78122 3.21221C1.7611 3.03144 1.77949 2.84845 1.83516 2.67529C1.89084 2.50213 1.98255 2.34272 2.10426 2.20755C2.22597 2.07238 2.37492 1.96451 2.54132 1.89104C2.70771 1.81757 2.88777 1.78016 3.06966 1.78127H5.93747C6.19338 1.78203 6.44322 1.85933 6.65484 2.00324C6.86646 2.14714 7.03019 2.35106 7.12497 2.58877L7.77216 4.20971C7.86731 4.4431 7.89159 4.69934 7.84195 4.94644C7.79232 5.19354 7.67099 5.42054 7.4931 5.59909L6.1631 6.92909C6.1631 6.92909 6.92904 12.1125 12.0709 12.7538Z" fill="#2C3B45"/>
</svg>
